# xmcd
#
# Track frame offsets:
#	150
#	10138
#	22053
#	31986
#	45879
#	59971
#	73053
#	83222
#	95996
#	108602
#	122680
#	134437
#	147319
#
# Disc length: 2257 seconds
#
# Revision: 0
# Processed by: cddbd v1.5.2PL0 Copyright (c) Steve Scherf et al.
# Submitted via: dBpowerAMP V4.0
#
DISCID=c008cf0d
DTITLE=Alzira E - Alzira E
DYEAR=2007
DGENRE=Blues
TTITLE0=rasgo fácil
TTITLE1=talento
TTITLE2=vai quê
TTITLE3=assim que possível
TTITLE4=(meio segundo)
TTITLE5=ouvindo lou reed
TTITLE6=tecnocólera
TTITLE7=kitnet
TTITLE8=chuva acesa
TTITLE9=não tem limite
TTITLE10=lugar algum
TTITLE11=diz
TTITLE12=agora yes
EXTD=
EXTT0=
EXTT1=
EXTT2=
EXTT3=
EXTT4=
EXTT5=
EXTT6=
EXTT7=
EXTT8=
EXTT9=
EXTT10=
EXTT11=
EXTT12=
PLAYORDER=
